<svg preserveAspectRatio="none" overflow="visible" style="display: block;" width="20" height="20" viewBox="0 0 20 20" fill="none" xmlns="http://www.w3.org/2000/svg">
<g id="Group">
<path id="Vector" d="M10 20C7.32889 20 4.81769 18.9598 2.92893 17.0711C1.04019 15.1823 0 12.6711 0 10C0 7.32889 1.04019 4.81767 2.92893 2.92893C4.81767 1.04019 7.32889 0 10 0C11.1501 0 12.2782 0.193863 13.3528 0.576215C13.8917 0.767942 14.1731 1.36028 13.9814 1.89923C13.7896 2.4382 13.1974 2.71958 12.6583 2.52786C11.8073 2.22504 10.9129 2.07149 9.99998 2.07149C5.62818 2.07149 2.07149 5.62818 2.07149 9.99998C2.07149 14.3718 5.62818 17.9285 9.99998 17.9285C14.3718 17.9285 17.9285 14.3718 17.9285 9.99998C17.9285 9.29148 17.8352 8.58927 17.6512 7.91284C17.501 7.36086 17.8267 6.79168 18.3787 6.64152C18.9305 6.49135 19.4998 6.81709 19.65 7.36904C19.8822 8.22266 20 9.10781 20 9.99995C20 12.671 18.9598 15.1823 17.071 17.071C15.1823 18.9598 12.6711 20 10 20Z" fill="#51AA4D"/>
<path id="Vector_2" d="M19.6952 2.48137C16.7372 5.73066 13.96 9.56648 11.7835 13.4163C11.3295 14.2196 10.4659 14.7031 9.54415 14.6641C9.53608 14.6638 9.52771 14.6634 9.51933 14.6631C8.62357 14.6275 7.81713 14.1033 7.42415 13.2975C6.73185 11.8797 5.73839 10.3748 4.85195 9.1093C4.52659 8.64468 4.68167 8.00232 5.17979 7.73123C5.19002 7.72564 5.20027 7.72038 5.21049 7.71479C6.43192 7.05475 7.95794 7.46014 8.69334 8.63753C8.96008 9.06464 9.2138 9.49979 9.45355 9.94302C11.4876 7.11679 13.7791 4.49682 16.2825 2.13367C17.1193 1.34399 18.2796 1.06017 19.3485 1.32383C19.8646 1.451 20.0532 2.08838 19.6952 2.48137Z" fill="#51AA4D"/>
</g>
</svg>
